<?xml version="1.0" encoding="UTF-8" ?>
<svg version="1.1" width="96" height="96" xmlns="http://www.w3.org/2000/svg" shape-rendering="crispEdges">
<rect x="2" y="6" width="7" height="1" fill="#5B2B2A" />
<rect x="9" y="6" width="3" height="1" fill="#853605" />
<rect x="12" y="6" width="74" height="1" fill="#B14E05" />
<rect x="86" y="6" width="3" height="1" fill="#853605" />
<rect x="89" y="6" width="5" height="1" fill="#5B2B2A" />
<rect x="1" y="7" width="1" height="81" fill="#5B2B2A" />
<rect x="2" y="7" width="1" height="1" fill="#853605" />
<rect x="3" y="7" width="3" height="1" fill="#B14E05" />
<rect x="6" y="7" width="3" height="1" fill="#DC7B05" />
<rect x="9" y="7" width="81" height="1" fill="#FA9305" />
<rect x="90" y="7" width="2" height="1" fill="#DC7B05" />
<rect x="92" y="7" width="1" height="67" fill="#B14E05" />
<rect x="93" y="7" width="1" height="1" fill="#853605" />
<rect x="94" y="7" width="1" height="5" fill="#5B2B2A" />
<rect x="2" y="8" width="1" height="79" fill="#B14E05" />
<rect x="3" y="8" width="1" height="2" fill="#DC7B05" />
<rect x="4" y="8" width="88" height="1" fill="#B14E05" />
<rect x="93" y="8" width="1" height="1" fill="#B14E05" />
<rect x="4" y="9" width="1" height="6" fill="#B14E05" />
<rect x="93" y="9" width="1" height="2" fill="#DC7B05" />
<rect x="3" y="10" width="1" height="2" fill="#FA9305" />
<rect x="93" y="11" width="1" height="63" fill="#FA9305" />
<rect x="3" y="12" width="1" height="72" fill="#DC7B05" />
<rect x="94" y="12" width="1" height="1" fill="#853605" />
<rect x="94" y="13" width="1" height="63" fill="#B14E05" />
<rect x="4" y="15" width="1" height="71" fill="#853605" />
<rect x="92" y="74" width="1" height="12" fill="#853605" />
<rect x="93" y="74" width="1" height="7" fill="#DC7B05" />
<rect x="94" y="76" width="1" height="3" fill="#853605" />
<rect x="94" y="79" width="1" height="9" fill="#5B2B2A" />
<rect x="93" y="81" width="1" height="7" fill="#B14E05" />
<rect x="3" y="84" width="1" height="2" fill="#B14E05" />
<rect x="5" y="85" width="87" height="1" fill="#853605" />
<rect x="3" y="86" width="1" height="1" fill="#853605" />
<rect x="4" y="86" width="2" height="2" fill="#B14E05" />
<rect x="6" y="86" width="79" height="1" fill="#DC7B05" />
<rect x="85" y="86" width="8" height="1" fill="#B14E05" />
<rect x="2" y="87" width="1" height="1" fill="#853605" />
<rect x="3" y="87" width="1" height="1" fill="#B14E05" />
<rect x="6" y="87" width="73" height="1" fill="#B14E05" />
<rect x="79" y="87" width="14" height="1" fill="#FA9305" />
<rect x="2" y="88" width="92" height="1" fill="#5B2B2A" />
</svg>