<?xml version="1.0" encoding="UTF-8" ?>
<svg version="1.1" width="96" height="96" xmlns="http://www.w3.org/2000/svg" shape-rendering="crispEdges">
<rect x="5" y="4" width="6" height="1" fill="#5B2B2A" />
<rect x="11" y="4" width="3" height="1" fill="#853605" />
<rect x="14" y="4" width="70" height="1" fill="#B14E05" />
<rect x="84" y="4" width="2" height="1" fill="#853605" />
<rect x="86" y="4" width="5" height="1" fill="#5B2B2A" />
<rect x="4" y="5" width="1" height="86" fill="#5B2B2A" />
<rect x="5" y="5" width="1" height="1" fill="#853605" />
<rect x="6" y="5" width="3" height="1" fill="#B14E05" />
<rect x="9" y="5" width="2" height="1" fill="#DC7B05" />
<rect x="11" y="5" width="76" height="1" fill="#FA9305" />
<rect x="87" y="5" width="2" height="1" fill="#DC7B05" />
<rect x="89" y="5" width="1" height="71" fill="#B14E05" />
<rect x="90" y="5" width="1" height="1" fill="#853605" />
<rect x="91" y="5" width="1" height="5" fill="#5B2B2A" />
<rect x="5" y="6" width="1" height="84" fill="#B14E05" />
<rect x="6" y="6" width="1" height="2" fill="#DC7B05" />
<rect x="7" y="6" width="82" height="1" fill="#B14E05" />
<rect x="90" y="6" width="1" height="1" fill="#B14E05" />
<rect x="7" y="7" width="1" height="7" fill="#B14E05" />
<rect x="90" y="7" width="1" height="2" fill="#DC7B05" />
<rect x="6" y="8" width="1" height="2" fill="#FA9305" />
<rect x="90" y="9" width="1" height="67" fill="#FA9305" />
<rect x="6" y="10" width="1" height="77" fill="#DC7B05" />
<rect x="91" y="10" width="1" height="2" fill="#853605" />
<rect x="91" y="12" width="1" height="66" fill="#B14E05" />
<rect x="7" y="14" width="1" height="75" fill="#853605" />
<rect x="89" y="76" width="1" height="13" fill="#853605" />
<rect x="90" y="76" width="1" height="7" fill="#DC7B05" />
<rect x="91" y="78" width="1" height="3" fill="#853605" />
<rect x="91" y="81" width="1" height="10" fill="#5B2B2A" />
<rect x="90" y="83" width="1" height="8" fill="#B14E05" />
<rect x="6" y="87" width="1" height="2" fill="#B14E05" />
<rect x="8" y="88" width="81" height="1" fill="#853605" />
<rect x="6" y="89" width="1" height="1" fill="#853605" />
<rect x="7" y="89" width="2" height="2" fill="#B14E05" />
<rect x="9" y="89" width="74" height="1" fill="#DC7B05" />
<rect x="83" y="89" width="7" height="1" fill="#B14E05" />
<rect x="5" y="90" width="1" height="1" fill="#853605" />
<rect x="6" y="90" width="1" height="1" fill="#B14E05" />
<rect x="9" y="90" width="68" height="1" fill="#B14E05" />
<rect x="77" y="90" width="13" height="1" fill="#FA9305" />
<rect x="5" y="91" width="86" height="1" fill="#5B2B2A" />
</svg>